<mxfile host="app.diagrams.net" modified="2021-04-29T03:37:19.615Z" agent="5.0 (Windows NT 10.0; Win64; x64) AppleWebKit/537.36 (KHTML, like Gecko) Chrome/90.0.4430.93 Safari/537.36" etag="FbFlUyM4QY1PNa-uxQBx" version="14.6.6" type="github" pages="2">
  <diagram id="R2lEEEUBdFMjLlhIrx00" name="Page-1">
    <mxGraphModel dx="850" dy="357" grid="1" gridSize="10" guides="1" tooltips="1" connect="1" arrows="1" fold="1" page="1" pageScale="1" pageWidth="850" pageHeight="1100" math="0" shadow="0" extFonts="Permanent Marker^https://fonts.googleapis.com/css?family=Permanent+Marker">
      <root>
        <mxCell id="0" />
        <mxCell id="1" parent="0" />
        <mxCell id="b-eS_55t2D7FbjsbprO6-9" value="Camera" style="swimlane;fontStyle=0;childLayout=stackLayout;horizontal=1;startSize=26;horizontalStack=0;resizeParent=1;resizeParentMax=0;resizeLast=0;collapsible=1;marginBottom=0;align=center;fontSize=14;" parent="1" vertex="1">
          <mxGeometry x="90" y="80" width="120" height="142" as="geometry" />
        </mxCell>
        <mxCell id="b-eS_55t2D7FbjsbprO6-10" value="Camera_ID" style="text;strokeColor=none;fillColor=none;spacingLeft=4;spacingRight=4;overflow=hidden;rotatable=0;points=[[0,0.5],[1,0.5]];portConstraint=eastwest;fontSize=12;fontStyle=5" parent="b-eS_55t2D7FbjsbprO6-9" vertex="1">
          <mxGeometry y="26" width="120" height="26" as="geometry" />
        </mxCell>
        <mxCell id="b-eS_55t2D7FbjsbprO6-22" value="Camera_Name" style="text;strokeColor=none;fillColor=none;spacingLeft=4;spacingRight=4;overflow=hidden;rotatable=0;points=[[0,0.5],[1,0.5]];portConstraint=eastwest;fontSize=12;" parent="b-eS_55t2D7FbjsbprO6-9" vertex="1">
          <mxGeometry y="52" width="120" height="30" as="geometry" />
        </mxCell>
        <mxCell id="b-eS_55t2D7FbjsbprO6-12" value="Series_Name" style="text;strokeColor=none;fillColor=none;spacingLeft=4;spacingRight=4;overflow=hidden;rotatable=0;points=[[0,0.5],[1,0.5]];portConstraint=eastwest;fontSize=12;" parent="b-eS_55t2D7FbjsbprO6-9" vertex="1">
          <mxGeometry y="82" width="120" height="30" as="geometry" />
        </mxCell>
        <mxCell id="b-eS_55t2D7FbjsbprO6-23" value="Â Mount_System" style="text;strokeColor=none;fillColor=none;spacingLeft=4;spacingRight=4;overflow=hidden;rotatable=0;points=[[0,0.5],[1,0.5]];portConstraint=eastwest;fontSize=12;" parent="b-eS_55t2D7FbjsbprO6-9" vertex="1">
          <mxGeometry y="112" width="120" height="30" as="geometry" />
        </mxCell>
        <mxCell id="b-eS_55t2D7FbjsbprO6-13" value="Lens" style="swimlane;fontStyle=0;childLayout=stackLayout;horizontal=1;startSize=26;horizontalStack=0;resizeParent=1;resizeParentMax=0;resizeLast=0;collapsible=1;marginBottom=0;align=center;fontSize=14;" parent="1" vertex="1">
          <mxGeometry x="520" y="80" width="145" height="108" as="geometry" />
        </mxCell>
        <mxCell id="b-eS_55t2D7FbjsbprO6-14" value="Lens_ID" style="text;strokeColor=none;fillColor=none;spacingLeft=4;spacingRight=4;overflow=hidden;rotatable=0;points=[[0,0.5],[1,0.5]];portConstraint=eastwest;fontSize=12;fontStyle=5" parent="b-eS_55t2D7FbjsbprO6-13" vertex="1">
          <mxGeometry y="26" width="145" height="22" as="geometry" />
        </mxCell>
        <mxCell id="b-eS_55t2D7FbjsbprO6-15" value="Brand_Name" style="text;strokeColor=none;fillColor=none;spacingLeft=4;spacingRight=4;overflow=hidden;rotatable=0;points=[[0,0.5],[1,0.5]];portConstraint=eastwest;fontSize=12;" parent="b-eS_55t2D7FbjsbprO6-13" vertex="1">
          <mxGeometry y="48" width="145" height="30" as="geometry" />
        </mxCell>
        <mxCell id="b-eS_55t2D7FbjsbprO6-16" value="Lens_Name" style="text;strokeColor=none;fillColor=none;spacingLeft=4;spacingRight=4;overflow=hidden;rotatable=0;points=[[0,0.5],[1,0.5]];portConstraint=eastwest;fontSize=12;" parent="b-eS_55t2D7FbjsbprO6-13" vertex="1">
          <mxGeometry y="78" width="145" height="30" as="geometry" />
        </mxCell>
        <mxCell id="b-eS_55t2D7FbjsbprO6-18" value="Lens Brand" style="swimlane;fontStyle=0;childLayout=stackLayout;horizontal=1;startSize=26;horizontalStack=0;resizeParent=1;resizeParentMax=0;resizeLast=0;collapsible=1;marginBottom=0;align=center;fontSize=14;" parent="1" vertex="1">
          <mxGeometry x="720" y="80" width="145" height="116" as="geometry" />
        </mxCell>
        <mxCell id="b-eS_55t2D7FbjsbprO6-20" value="Brand_Name" style="text;strokeColor=none;fillColor=none;spacingLeft=4;spacingRight=4;overflow=hidden;rotatable=0;points=[[0,0.5],[1,0.5]];portConstraint=eastwest;fontSize=12;fontStyle=5" parent="b-eS_55t2D7FbjsbprO6-18" vertex="1">
          <mxGeometry y="26" width="145" height="30" as="geometry" />
        </mxCell>
        <mxCell id="b-eS_55t2D7FbjsbprO6-19" value="Brand_ID" style="text;strokeColor=none;fillColor=none;spacingLeft=4;spacingRight=4;overflow=hidden;rotatable=0;points=[[0,0.5],[1,0.5]];portConstraint=eastwest;fontSize=12;fontStyle=0" parent="b-eS_55t2D7FbjsbprO6-18" vertex="1">
          <mxGeometry y="56" width="145" height="30" as="geometry" />
        </mxCell>
        <mxCell id="b-eS_55t2D7FbjsbprO6-21" value="Adaptor" style="text;strokeColor=none;fillColor=none;spacingLeft=4;spacingRight=4;overflow=hidden;rotatable=0;points=[[0,0.5],[1,0.5]];portConstraint=eastwest;fontSize=12;" parent="b-eS_55t2D7FbjsbprO6-18" vertex="1">
          <mxGeometry y="86" width="145" height="30" as="geometry" />
        </mxCell>
        <mxCell id="b-eS_55t2D7FbjsbprO6-25" value="Camera_Lens" style="swimlane;fontStyle=0;childLayout=stackLayout;horizontal=1;startSize=26;horizontalStack=0;resizeParent=1;resizeParentMax=0;resizeLast=0;collapsible=1;marginBottom=0;align=center;fontSize=14;" parent="1" vertex="1">
          <mxGeometry x="290" y="80" width="150" height="86" as="geometry" />
        </mxCell>
        <mxCell id="b-eS_55t2D7FbjsbprO6-26" value="Camera_ID&#xa;" style="text;strokeColor=none;fillColor=none;spacingLeft=4;spacingRight=4;overflow=hidden;rotatable=0;points=[[0,0.5],[1,0.5]];portConstraint=eastwest;fontSize=12;fontStyle=5" parent="b-eS_55t2D7FbjsbprO6-25" vertex="1">
          <mxGeometry y="26" width="150" height="30" as="geometry" />
        </mxCell>
        <mxCell id="b-eS_55t2D7FbjsbprO6-27" value="Lens_ID" style="text;strokeColor=none;fillColor=none;spacingLeft=4;spacingRight=4;overflow=hidden;rotatable=0;points=[[0,0.5],[1,0.5]];portConstraint=eastwest;fontSize=12;fontStyle=5" parent="b-eS_55t2D7FbjsbprO6-25" vertex="1">
          <mxGeometry y="56" width="150" height="30" as="geometry" />
        </mxCell>
        <mxCell id="b-eS_55t2D7FbjsbprO6-29" value="" style="shape=table;html=1;whiteSpace=wrap;startSize=0;container=1;collapsible=0;childLayout=tableLayout;" parent="1" vertex="1">
          <mxGeometry x="180" y="330" width="630" height="103" as="geometry" />
        </mxCell>
        <mxCell id="b-eS_55t2D7FbjsbprO6-30" value="" style="shape=partialRectangle;html=1;whiteSpace=wrap;collapsible=0;dropTarget=0;pointerEvents=0;fillColor=none;top=0;left=0;bottom=0;right=0;points=[[0,0.5],[1,0.5]];portConstraint=eastwest;" parent="b-eS_55t2D7FbjsbprO6-29" vertex="1">
          <mxGeometry width="630" height="40" as="geometry" />
        </mxCell>
        <mxCell id="b-eS_55t2D7FbjsbprO6-31" value="Camera_ID" style="shape=partialRectangle;html=1;whiteSpace=wrap;connectable=0;overflow=hidden;fillColor=none;top=0;left=0;bottom=0;right=0;" parent="b-eS_55t2D7FbjsbprO6-30" vertex="1">
          <mxGeometry width="71" height="40" as="geometry" />
        </mxCell>
        <mxCell id="b-eS_55t2D7FbjsbprO6-32" value="Camera_Name" style="shape=partialRectangle;html=1;whiteSpace=wrap;connectable=0;overflow=hidden;fillColor=none;top=0;left=0;bottom=0;right=0;" parent="b-eS_55t2D7FbjsbprO6-30" vertex="1">
          <mxGeometry x="71" width="89" height="40" as="geometry" />
        </mxCell>
        <mxCell id="b-eS_55t2D7FbjsbprO6-33" value="Series" style="shape=partialRectangle;html=1;whiteSpace=wrap;connectable=0;overflow=hidden;fillColor=none;top=0;left=0;bottom=0;right=0;" parent="b-eS_55t2D7FbjsbprO6-30" vertex="1">
          <mxGeometry x="160" width="54" height="40" as="geometry" />
        </mxCell>
        <mxCell id="b-eS_55t2D7FbjsbprO6-34" value="Mount_System" style="shape=partialRectangle;html=1;whiteSpace=wrap;connectable=0;overflow=hidden;fillColor=none;top=0;left=0;bottom=0;right=0;" parent="b-eS_55t2D7FbjsbprO6-30" vertex="1">
          <mxGeometry x="214" width="106" height="40" as="geometry" />
        </mxCell>
        <mxCell id="b-eS_55t2D7FbjsbprO6-35" value="Lens_ID" style="shape=partialRectangle;html=1;whiteSpace=wrap;connectable=0;overflow=hidden;fillColor=none;top=0;left=0;bottom=0;right=0;" parent="b-eS_55t2D7FbjsbprO6-30" vertex="1">
          <mxGeometry x="320" width="70" height="40" as="geometry" />
        </mxCell>
        <mxCell id="b-eS_55t2D7FbjsbprO6-36" value="Lens_Name" style="shape=partialRectangle;html=1;whiteSpace=wrap;connectable=0;overflow=hidden;fillColor=none;top=0;left=0;bottom=0;right=0;" parent="b-eS_55t2D7FbjsbprO6-30" vertex="1">
          <mxGeometry x="390" width="80" height="40" as="geometry" />
        </mxCell>
        <mxCell id="b-eS_55t2D7FbjsbprO6-37" value="Lens_Brand_ID" style="shape=partialRectangle;html=1;whiteSpace=wrap;connectable=0;overflow=hidden;fillColor=none;top=0;left=0;bottom=0;right=0;" parent="b-eS_55t2D7FbjsbprO6-30" vertex="1">
          <mxGeometry x="470" width="100" height="40" as="geometry" />
        </mxCell>
        <mxCell id="b-eS_55t2D7FbjsbprO6-38" value="Adaptor" style="shape=partialRectangle;html=1;whiteSpace=wrap;connectable=0;overflow=hidden;fillColor=none;top=0;left=0;bottom=0;right=0;" parent="b-eS_55t2D7FbjsbprO6-30" vertex="1">
          <mxGeometry x="570" width="60" height="40" as="geometry" />
        </mxCell>
        <mxCell id="b-eS_55t2D7FbjsbprO6-39" value="" style="shape=partialRectangle;html=1;whiteSpace=wrap;collapsible=0;dropTarget=0;pointerEvents=0;fillColor=none;top=0;left=0;bottom=0;right=0;points=[[0,0.5],[1,0.5]];portConstraint=eastwest;" parent="b-eS_55t2D7FbjsbprO6-29" vertex="1">
          <mxGeometry y="40" width="630" height="20" as="geometry" />
        </mxCell>
        <mxCell id="b-eS_55t2D7FbjsbprO6-40" value="1" style="shape=partialRectangle;html=1;whiteSpace=wrap;connectable=0;overflow=hidden;fillColor=none;top=0;left=0;bottom=0;right=0;" parent="b-eS_55t2D7FbjsbprO6-39" vertex="1">
          <mxGeometry width="71" height="20" as="geometry" />
        </mxCell>
        <mxCell id="b-eS_55t2D7FbjsbprO6-41" value="Delta" style="shape=partialRectangle;html=1;whiteSpace=wrap;connectable=0;overflow=hidden;fillColor=none;top=0;left=0;bottom=0;right=0;" parent="b-eS_55t2D7FbjsbprO6-39" vertex="1">
          <mxGeometry x="71" width="89" height="20" as="geometry" />
        </mxCell>
        <mxCell id="b-eS_55t2D7FbjsbprO6-42" value="Alpha-7" style="shape=partialRectangle;html=1;whiteSpace=wrap;connectable=0;overflow=hidden;fillColor=none;top=0;left=0;bottom=0;right=0;" parent="b-eS_55t2D7FbjsbprO6-39" vertex="1">
          <mxGeometry x="160" width="54" height="20" as="geometry" />
        </mxCell>
        <mxCell id="b-eS_55t2D7FbjsbprO6-43" value="E" style="shape=partialRectangle;html=1;whiteSpace=wrap;connectable=0;overflow=hidden;fillColor=none;top=0;left=0;bottom=0;right=0;" parent="b-eS_55t2D7FbjsbprO6-39" vertex="1">
          <mxGeometry x="214" width="106" height="20" as="geometry" />
        </mxCell>
        <mxCell id="b-eS_55t2D7FbjsbprO6-44" value="123" style="shape=partialRectangle;html=1;whiteSpace=wrap;connectable=0;overflow=hidden;fillColor=none;top=0;left=0;bottom=0;right=0;" parent="b-eS_55t2D7FbjsbprO6-39" vertex="1">
          <mxGeometry x="320" width="70" height="20" as="geometry" />
        </mxCell>
        <mxCell id="b-eS_55t2D7FbjsbprO6-45" value="ABC" style="shape=partialRectangle;html=1;whiteSpace=wrap;connectable=0;overflow=hidden;fillColor=none;top=0;left=0;bottom=0;right=0;" parent="b-eS_55t2D7FbjsbprO6-39" vertex="1">
          <mxGeometry x="390" width="80" height="20" as="geometry" />
        </mxCell>
        <mxCell id="b-eS_55t2D7FbjsbprO6-46" value="Nikon" style="shape=partialRectangle;html=1;whiteSpace=wrap;connectable=0;overflow=hidden;fillColor=none;top=0;left=0;bottom=0;right=0;" parent="b-eS_55t2D7FbjsbprO6-39" vertex="1">
          <mxGeometry x="470" width="100" height="20" as="geometry" />
        </mxCell>
        <mxCell id="b-eS_55t2D7FbjsbprO6-47" value="Yes" style="shape=partialRectangle;html=1;whiteSpace=wrap;connectable=0;overflow=hidden;fillColor=none;top=0;left=0;bottom=0;right=0;" parent="b-eS_55t2D7FbjsbprO6-39" vertex="1">
          <mxGeometry x="570" width="60" height="20" as="geometry" />
        </mxCell>
        <mxCell id="b-eS_55t2D7FbjsbprO6-48" value="" style="shape=partialRectangle;html=1;whiteSpace=wrap;collapsible=0;dropTarget=0;pointerEvents=0;fillColor=none;top=0;left=0;bottom=0;right=0;points=[[0,0.5],[1,0.5]];portConstraint=eastwest;" parent="b-eS_55t2D7FbjsbprO6-29" vertex="1">
          <mxGeometry y="60" width="630" height="23" as="geometry" />
        </mxCell>
        <mxCell id="b-eS_55t2D7FbjsbprO6-49" value="2" style="shape=partialRectangle;html=1;whiteSpace=wrap;connectable=0;overflow=hidden;fillColor=none;top=0;left=0;bottom=0;right=0;" parent="b-eS_55t2D7FbjsbprO6-48" vertex="1">
          <mxGeometry width="71" height="23" as="geometry" />
        </mxCell>
        <mxCell id="b-eS_55t2D7FbjsbprO6-50" value="Beta" style="shape=partialRectangle;html=1;whiteSpace=wrap;connectable=0;overflow=hidden;fillColor=none;top=0;left=0;bottom=0;right=0;" parent="b-eS_55t2D7FbjsbprO6-48" vertex="1">
          <mxGeometry x="71" width="89" height="23" as="geometry" />
        </mxCell>
        <mxCell id="b-eS_55t2D7FbjsbprO6-51" value="Alpha-8" style="shape=partialRectangle;html=1;whiteSpace=wrap;connectable=0;overflow=hidden;fillColor=none;top=0;left=0;bottom=0;right=0;" parent="b-eS_55t2D7FbjsbprO6-48" vertex="1">
          <mxGeometry x="160" width="54" height="23" as="geometry" />
        </mxCell>
        <mxCell id="b-eS_55t2D7FbjsbprO6-52" value="FE" style="shape=partialRectangle;html=1;whiteSpace=wrap;connectable=0;overflow=hidden;fillColor=none;top=0;left=0;bottom=0;right=0;" parent="b-eS_55t2D7FbjsbprO6-48" vertex="1">
          <mxGeometry x="214" width="106" height="23" as="geometry" />
        </mxCell>
        <mxCell id="b-eS_55t2D7FbjsbprO6-53" value="125" style="shape=partialRectangle;html=1;whiteSpace=wrap;connectable=0;overflow=hidden;fillColor=none;top=0;left=0;bottom=0;right=0;" parent="b-eS_55t2D7FbjsbprO6-48" vertex="1">
          <mxGeometry x="320" width="70" height="23" as="geometry" />
        </mxCell>
        <mxCell id="b-eS_55t2D7FbjsbprO6-54" value="LMN" style="shape=partialRectangle;html=1;whiteSpace=wrap;connectable=0;overflow=hidden;fillColor=none;top=0;left=0;bottom=0;right=0;" parent="b-eS_55t2D7FbjsbprO6-48" vertex="1">
          <mxGeometry x="390" width="80" height="23" as="geometry" />
        </mxCell>
        <mxCell id="b-eS_55t2D7FbjsbprO6-55" value="Sony" style="shape=partialRectangle;html=1;whiteSpace=wrap;connectable=0;overflow=hidden;fillColor=none;top=0;left=0;bottom=0;right=0;" parent="b-eS_55t2D7FbjsbprO6-48" vertex="1">
          <mxGeometry x="470" width="100" height="23" as="geometry" />
        </mxCell>
        <mxCell id="b-eS_55t2D7FbjsbprO6-56" value="No" style="shape=partialRectangle;html=1;whiteSpace=wrap;connectable=0;overflow=hidden;fillColor=none;top=0;left=0;bottom=0;right=0;" parent="b-eS_55t2D7FbjsbprO6-48" vertex="1">
          <mxGeometry x="570" width="60" height="23" as="geometry" />
        </mxCell>
        <mxCell id="b-eS_55t2D7FbjsbprO6-57" value="" style="shape=partialRectangle;html=1;whiteSpace=wrap;collapsible=0;dropTarget=0;pointerEvents=0;fillColor=none;top=0;left=0;bottom=0;right=0;points=[[0,0.5],[1,0.5]];portConstraint=eastwest;" parent="b-eS_55t2D7FbjsbprO6-29" vertex="1">
          <mxGeometry y="83" width="630" height="20" as="geometry" />
        </mxCell>
        <mxCell id="b-eS_55t2D7FbjsbprO6-58" value="3" style="shape=partialRectangle;html=1;whiteSpace=wrap;connectable=0;overflow=hidden;fillColor=none;top=0;left=0;bottom=0;right=0;" parent="b-eS_55t2D7FbjsbprO6-57" vertex="1">
          <mxGeometry width="71" height="20" as="geometry" />
        </mxCell>
        <mxCell id="b-eS_55t2D7FbjsbprO6-59" value="Gama" style="shape=partialRectangle;html=1;whiteSpace=wrap;connectable=0;overflow=hidden;fillColor=none;top=0;left=0;bottom=0;right=0;" parent="b-eS_55t2D7FbjsbprO6-57" vertex="1">
          <mxGeometry x="71" width="89" height="20" as="geometry" />
        </mxCell>
        <mxCell id="b-eS_55t2D7FbjsbprO6-60" value="Alpha-9" style="shape=partialRectangle;html=1;whiteSpace=wrap;connectable=0;overflow=hidden;fillColor=none;top=0;left=0;bottom=0;right=0;" parent="b-eS_55t2D7FbjsbprO6-57" vertex="1">
          <mxGeometry x="160" width="54" height="20" as="geometry" />
        </mxCell>
        <mxCell id="b-eS_55t2D7FbjsbprO6-61" value="FE" style="shape=partialRectangle;html=1;whiteSpace=wrap;connectable=0;overflow=hidden;fillColor=none;top=0;left=0;bottom=0;right=0;" parent="b-eS_55t2D7FbjsbprO6-57" vertex="1">
          <mxGeometry x="214" width="106" height="20" as="geometry" />
        </mxCell>
        <mxCell id="b-eS_55t2D7FbjsbprO6-62" value="125" style="shape=partialRectangle;html=1;whiteSpace=wrap;connectable=0;overflow=hidden;fillColor=none;top=0;left=0;bottom=0;right=0;" parent="b-eS_55t2D7FbjsbprO6-57" vertex="1">
          <mxGeometry x="320" width="70" height="20" as="geometry" />
        </mxCell>
        <mxCell id="b-eS_55t2D7FbjsbprO6-63" value="LMN" style="shape=partialRectangle;html=1;whiteSpace=wrap;connectable=0;overflow=hidden;fillColor=none;top=0;left=0;bottom=0;right=0;" parent="b-eS_55t2D7FbjsbprO6-57" vertex="1">
          <mxGeometry x="390" width="80" height="20" as="geometry" />
        </mxCell>
        <mxCell id="b-eS_55t2D7FbjsbprO6-64" value="Sony" style="shape=partialRectangle;html=1;whiteSpace=wrap;connectable=0;overflow=hidden;fillColor=none;top=0;left=0;bottom=0;right=0;" parent="b-eS_55t2D7FbjsbprO6-57" vertex="1">
          <mxGeometry x="470" width="100" height="20" as="geometry" />
        </mxCell>
        <mxCell id="b-eS_55t2D7FbjsbprO6-65" value="No" style="shape=partialRectangle;html=1;whiteSpace=wrap;connectable=0;overflow=hidden;fillColor=none;top=0;left=0;bottom=0;right=0;" parent="b-eS_55t2D7FbjsbprO6-57" vertex="1">
          <mxGeometry x="570" width="60" height="20" as="geometry" />
        </mxCell>
      </root>
    </mxGraphModel>
  </diagram>
  <diagram id="tmsFJQ3W9J36S1MV8ses" name="Page-2">
    <mxGraphModel dx="850" dy="357" grid="1" gridSize="10" guides="1" tooltips="1" connect="1" arrows="1" fold="1" page="1" pageScale="1" pageWidth="850" pageHeight="1100" math="0" shadow="0">
      <root>
        <mxCell id="hAWEYPX0-4AdZ6eWGJ0R-0" />
        <mxCell id="hAWEYPX0-4AdZ6eWGJ0R-1" parent="hAWEYPX0-4AdZ6eWGJ0R-0" />
        <mxCell id="hAWEYPX0-4AdZ6eWGJ0R-2" value="Sony_Alpha_Series_Camera" style="swimlane;fontStyle=0;childLayout=stackLayout;horizontal=1;startSize=26;horizontalStack=0;resizeParent=1;resizeParentMax=0;resizeLast=0;collapsible=1;marginBottom=0;align=center;fontSize=14;" vertex="1" parent="hAWEYPX0-4AdZ6eWGJ0R-1">
          <mxGeometry x="60" y="60" width="210" height="140" as="geometry" />
        </mxCell>
        <mxCell id="hAWEYPX0-4AdZ6eWGJ0R-3" value="Sony_Camera_ID" style="text;strokeColor=none;fillColor=none;spacingLeft=4;spacingRight=4;overflow=hidden;rotatable=0;points=[[0,0.5],[1,0.5]];portConstraint=eastwest;fontSize=12;" vertex="1" parent="hAWEYPX0-4AdZ6eWGJ0R-2">
          <mxGeometry y="26" width="210" height="30" as="geometry" />
        </mxCell>
        <mxCell id="hAWEYPX0-4AdZ6eWGJ0R-4" value="Camera_Name" style="text;strokeColor=none;fillColor=none;spacingLeft=4;spacingRight=4;overflow=hidden;rotatable=0;points=[[0,0.5],[1,0.5]];portConstraint=eastwest;fontSize=12;" vertex="1" parent="hAWEYPX0-4AdZ6eWGJ0R-2">
          <mxGeometry y="56" width="210" height="30" as="geometry" />
        </mxCell>
        <mxCell id="hAWEYPX0-4AdZ6eWGJ0R-5" value="Camera_Description" style="text;strokeColor=none;fillColor=none;spacingLeft=4;spacingRight=4;overflow=hidden;rotatable=0;points=[[0,0.5],[1,0.5]];portConstraint=eastwest;fontSize=12;" vertex="1" parent="hAWEYPX0-4AdZ6eWGJ0R-2">
          <mxGeometry y="86" width="210" height="24" as="geometry" />
        </mxCell>
        <mxCell id="hAWEYPX0-4AdZ6eWGJ0R-29" value="Lens_Compatibility" style="text;strokeColor=none;fillColor=none;spacingLeft=4;spacingRight=4;overflow=hidden;rotatable=0;points=[[0,0.5],[1,0.5]];portConstraint=eastwest;fontSize=12;" vertex="1" parent="hAWEYPX0-4AdZ6eWGJ0R-2">
          <mxGeometry y="110" width="210" height="30" as="geometry" />
        </mxCell>
        <mxCell id="hAWEYPX0-4AdZ6eWGJ0R-6" value="Third_Party_Lens" style="swimlane;fontStyle=0;childLayout=stackLayout;horizontal=1;startSize=26;horizontalStack=0;resizeParent=1;resizeParentMax=0;resizeLast=0;collapsible=1;marginBottom=0;align=center;fontSize=14;" vertex="1" parent="hAWEYPX0-4AdZ6eWGJ0R-1">
          <mxGeometry x="560" y="60" width="160" height="176" as="geometry" />
        </mxCell>
        <mxCell id="hAWEYPX0-4AdZ6eWGJ0R-7" value="Third_Party_Lens_ID" style="text;strokeColor=none;fillColor=none;spacingLeft=4;spacingRight=4;overflow=hidden;rotatable=0;points=[[0,0.5],[1,0.5]];portConstraint=eastwest;fontSize=12;" vertex="1" parent="hAWEYPX0-4AdZ6eWGJ0R-6">
          <mxGeometry y="26" width="160" height="30" as="geometry" />
        </mxCell>
        <mxCell id="hAWEYPX0-4AdZ6eWGJ0R-8" value="Third_Party_Lens_Name" style="text;strokeColor=none;fillColor=none;spacingLeft=4;spacingRight=4;overflow=hidden;rotatable=0;points=[[0,0.5],[1,0.5]];portConstraint=eastwest;fontSize=12;" vertex="1" parent="hAWEYPX0-4AdZ6eWGJ0R-6">
          <mxGeometry y="56" width="160" height="30" as="geometry" />
        </mxCell>
        <mxCell id="hAWEYPX0-4AdZ6eWGJ0R-9" value="Third_Party_Name" style="text;strokeColor=none;fillColor=none;spacingLeft=4;spacingRight=4;overflow=hidden;rotatable=0;points=[[0,0.5],[1,0.5]];portConstraint=eastwest;fontSize=12;" vertex="1" parent="hAWEYPX0-4AdZ6eWGJ0R-6">
          <mxGeometry y="86" width="160" height="30" as="geometry" />
        </mxCell>
        <mxCell id="hAWEYPX0-4AdZ6eWGJ0R-23" value="Description" style="text;strokeColor=none;fillColor=none;spacingLeft=4;spacingRight=4;overflow=hidden;rotatable=0;points=[[0,0.5],[1,0.5]];portConstraint=eastwest;fontSize=12;" vertex="1" parent="hAWEYPX0-4AdZ6eWGJ0R-6">
          <mxGeometry y="116" width="160" height="30" as="geometry" />
        </mxCell>
        <mxCell id="hAWEYPX0-4AdZ6eWGJ0R-28" value="Specifications" style="text;strokeColor=none;fillColor=none;spacingLeft=4;spacingRight=4;overflow=hidden;rotatable=0;points=[[0,0.5],[1,0.5]];portConstraint=eastwest;fontSize=12;" vertex="1" parent="hAWEYPX0-4AdZ6eWGJ0R-6">
          <mxGeometry y="146" width="160" height="30" as="geometry" />
        </mxCell>
        <mxCell id="hAWEYPX0-4AdZ6eWGJ0R-10" value="Adaptors" style="swimlane;fontStyle=0;childLayout=stackLayout;horizontal=1;startSize=26;horizontalStack=0;resizeParent=1;resizeParentMax=0;resizeLast=0;collapsible=1;marginBottom=0;align=center;fontSize=14;" vertex="1" parent="hAWEYPX0-4AdZ6eWGJ0R-1">
          <mxGeometry x="170" y="300" width="160" height="142" as="geometry" />
        </mxCell>
        <mxCell id="hAWEYPX0-4AdZ6eWGJ0R-11" value="Adaptor_ID" style="text;strokeColor=none;fillColor=none;spacingLeft=4;spacingRight=4;overflow=hidden;rotatable=0;points=[[0,0.5],[1,0.5]];portConstraint=eastwest;fontSize=12;" vertex="1" parent="hAWEYPX0-4AdZ6eWGJ0R-10">
          <mxGeometry y="26" width="160" height="26" as="geometry" />
        </mxCell>
        <mxCell id="hAWEYPX0-4AdZ6eWGJ0R-12" value="Adaptor_Name" style="text;strokeColor=none;fillColor=none;spacingLeft=4;spacingRight=4;overflow=hidden;rotatable=0;points=[[0,0.5],[1,0.5]];portConstraint=eastwest;fontSize=12;" vertex="1" parent="hAWEYPX0-4AdZ6eWGJ0R-10">
          <mxGeometry y="52" width="160" height="30" as="geometry" />
        </mxCell>
        <mxCell id="hAWEYPX0-4AdZ6eWGJ0R-24" value="Mount" style="text;strokeColor=none;fillColor=none;spacingLeft=4;spacingRight=4;overflow=hidden;rotatable=0;points=[[0,0.5],[1,0.5]];portConstraint=eastwest;fontSize=12;" vertex="1" parent="hAWEYPX0-4AdZ6eWGJ0R-10">
          <mxGeometry y="82" width="160" height="30" as="geometry" />
        </mxCell>
        <mxCell id="hAWEYPX0-4AdZ6eWGJ0R-32" value="Compatible_Cameras" style="text;strokeColor=none;fillColor=none;spacingLeft=4;spacingRight=4;overflow=hidden;rotatable=0;points=[[0,0.5],[1,0.5]];portConstraint=eastwest;fontSize=12;" vertex="1" parent="hAWEYPX0-4AdZ6eWGJ0R-10">
          <mxGeometry y="112" width="160" height="30" as="geometry" />
        </mxCell>
        <mxCell id="hAWEYPX0-4AdZ6eWGJ0R-14" value="Sony_Lens" style="swimlane;fontStyle=0;childLayout=stackLayout;horizontal=1;startSize=26;horizontalStack=0;resizeParent=1;resizeParentMax=0;resizeLast=0;collapsible=1;marginBottom=0;align=center;fontSize=14;" vertex="1" parent="hAWEYPX0-4AdZ6eWGJ0R-1">
          <mxGeometry x="320" y="60" width="160" height="206" as="geometry" />
        </mxCell>
        <mxCell id="hAWEYPX0-4AdZ6eWGJ0R-15" value="Lens_ID" style="text;strokeColor=none;fillColor=none;spacingLeft=4;spacingRight=4;overflow=hidden;rotatable=0;points=[[0,0.5],[1,0.5]];portConstraint=eastwest;fontSize=12;" vertex="1" parent="hAWEYPX0-4AdZ6eWGJ0R-14">
          <mxGeometry y="26" width="160" height="30" as="geometry" />
        </mxCell>
        <mxCell id="hAWEYPX0-4AdZ6eWGJ0R-16" value="Lens_Name" style="text;strokeColor=none;fillColor=none;spacingLeft=4;spacingRight=4;overflow=hidden;rotatable=0;points=[[0,0.5],[1,0.5]];portConstraint=eastwest;fontSize=12;" vertex="1" parent="hAWEYPX0-4AdZ6eWGJ0R-14">
          <mxGeometry y="56" width="160" height="30" as="geometry" />
        </mxCell>
        <mxCell id="hAWEYPX0-4AdZ6eWGJ0R-18" value="Compatible_Cameras" style="text;strokeColor=none;fillColor=none;spacingLeft=4;spacingRight=4;overflow=hidden;rotatable=0;points=[[0,0.5],[1,0.5]];portConstraint=eastwest;fontSize=12;" vertex="1" parent="hAWEYPX0-4AdZ6eWGJ0R-14">
          <mxGeometry y="86" width="160" height="30" as="geometry" />
        </mxCell>
        <mxCell id="hAWEYPX0-4AdZ6eWGJ0R-30" value="Mount" style="text;strokeColor=none;fillColor=none;spacingLeft=4;spacingRight=4;overflow=hidden;rotatable=0;points=[[0,0.5],[1,0.5]];portConstraint=eastwest;fontSize=12;" vertex="1" parent="hAWEYPX0-4AdZ6eWGJ0R-14">
          <mxGeometry y="116" width="160" height="30" as="geometry" />
        </mxCell>
        <mxCell id="hAWEYPX0-4AdZ6eWGJ0R-17" value="Description" style="text;strokeColor=none;fillColor=none;spacingLeft=4;spacingRight=4;overflow=hidden;rotatable=0;points=[[0,0.5],[1,0.5]];portConstraint=eastwest;fontSize=12;" vertex="1" parent="hAWEYPX0-4AdZ6eWGJ0R-14">
          <mxGeometry y="146" width="160" height="30" as="geometry" />
        </mxCell>
        <mxCell id="hAWEYPX0-4AdZ6eWGJ0R-20" value="Specifications" style="text;strokeColor=none;fillColor=none;spacingLeft=4;spacingRight=4;overflow=hidden;rotatable=0;points=[[0,0.5],[1,0.5]];portConstraint=eastwest;fontSize=12;" vertex="1" parent="hAWEYPX0-4AdZ6eWGJ0R-14">
          <mxGeometry y="176" width="160" height="30" as="geometry" />
        </mxCell>
      </root>
    </mxGraphModel>
  </diagram>
</mxfile>
